<svg width="176" height="153" viewBox="0 0 176 153" fill="none" xmlns="http://www.w3.org/2000/svg">
<path d="M132.298 36.2634L147.759 40.1308L120.687 148.355L27.9228 125.151L54.9951 16.926L70.4558 20.7934L72.3895 13.0631C73.4152 8.96268 76.0278 5.43767 79.6526 3.26352C83.2773 1.08938 87.6172 0.444199 91.7177 1.46992L122.639 9.20488C126.739 10.2306 130.264 12.8432 132.439 16.4679C134.613 20.0927 135.258 24.4326 134.232 28.533L132.298 36.2634ZM155.489 42.0646L163.22 43.9983C167.32 45.024 170.845 47.6366 173.019 51.2614C175.194 54.8861 175.839 59.226 174.813 63.3265L155.476 140.63C154.45 144.73 151.837 148.255 148.213 150.429C144.588 152.604 140.248 153.249 136.147 152.223L128.417 150.289L155.489 42.0646ZM47.2648 14.9922L20.1924 123.217L12.4621 121.283C8.36167 120.257 4.83665 117.645 2.66251 114.02C0.488364 110.395 -0.156816 106.055 0.868904 101.955L20.2063 24.6517C22.3334 16.1483 31.0311 10.9314 39.5344 13.0585L47.2648 14.9922ZM87.8502 16.9306L85.9164 24.6609L116.838 32.3959L118.772 24.6655L87.8502 16.9306Z" fill="#31AAFE" fill-opacity="0.18"/>
</svg>
