<svg width="78" height="80" viewBox="0 0 78 80" fill="none" xmlns="http://www.w3.org/2000/svg">
<path d="M14.625 5L43.875 4.99999C45.1679 4.99999 46.4079 5.52678 47.3221 6.46446C48.2364 7.40215 48.75 8.67391 48.75 9.99999L48.75 17.5L43.875 17.5L43.875 9.99999L14.625 10L14.625 70L43.875 70L43.875 62.5L48.75 62.5L48.75 70C48.75 71.3261 48.2364 72.5979 47.3221 73.5355C46.4079 74.4732 45.1679 75 43.875 75L14.625 75C13.3321 75 12.0921 74.4732 11.1779 73.5355C10.2636 72.5979 9.75 71.3261 9.75 70L9.75 10C9.75 8.67392 10.2636 7.40215 11.1779 6.46447C12.0921 5.52678 13.3321 5 14.625 5Z" fill="white"/>
<path d="M42.4369 28.525L33.7106 37.5L68.25 37.5L68.25 42.5L33.7106 42.5L42.4369 51.475L39 55L24.375 40L39 25L42.4369 28.525Z" fill="white"/>
</svg>
