<svg width="73" height="90" viewBox="0 0 73 90" fill="none" xmlns="http://www.w3.org/2000/svg">
<path d="M36.3061 0C35.715 0 35.2384 0.478418 35.2384 1.07166V13.9315C35.2384 14.5248 35.715 15.0032 36.3061 15.0032C36.8971 15.0032 37.3738 14.5248 37.3738 13.9315V1.07166C37.3738 0.478418 36.8971 0 36.3061 0ZM5.34239 11.1184C5.07546 11.1184 4.80853 11.2524 4.5988 11.4629C4.17934 11.8839 4.17934 12.5537 4.5988 12.9747L13.6362 22.0455C14.0557 22.4665 14.723 22.4665 15.1425 22.0455C15.5619 21.6245 15.5619 20.9547 15.1425 20.5337L6.10504 11.4629C5.89531 11.2524 5.60932 11.1184 5.34239 11.1184ZM67.2698 11.1184C67.0029 11.1184 66.7169 11.2524 66.5071 11.4629L57.4697 20.5337C57.0502 20.9547 57.0502 21.6245 57.4697 22.0455C57.8892 22.4665 58.5565 22.4665 58.9759 22.0455L68.0134 12.9747C68.4328 12.5537 68.4328 11.8839 68.0134 11.4629C67.7846 11.2524 67.5367 11.1184 67.2698 11.1184ZM14.0748 28.3032L0.194484 47.593C-0.0915105 47.9758 -0.0533779 48.569 0.251683 48.9326L35.4862 89.6555C35.8866 90.1148 36.6874 90.1148 37.0878 89.6555L72.3224 48.9326C72.6465 48.569 72.6656 47.9758 72.3796 47.593L58.4993 28.3032C58.3086 28.0353 57.9654 27.8631 57.6222 27.8631H14.9137C14.5324 27.8822 14.2464 28.131 14.0748 28.3032ZM16.4771 30.0064H34.1516L22.3114 46.1578L16.4771 30.0064ZM38.4415 30.0064H56.1351L50.3008 46.1578L38.4415 30.0064ZM36.3061 30.7527L48.356 47.172H24.2562L36.3061 30.7527ZM14.6086 31.1737L20.4048 47.1529H3.1307L14.6086 31.1737ZM57.9845 31.1737L69.4624 47.1529H52.2074L57.9845 31.1737ZM3.39762 49.2962H21.1865L33.9991 84.6226L3.39762 49.2962ZM23.4554 49.2962H49.1568L36.3061 84.7183L23.4554 49.2962ZM51.4257 49.2962H69.2145L38.594 84.6226L51.4257 49.2962Z" fill="#224CFF"/>
</svg>
