<svg width="35" height="35" viewBox="0 0 35 35" fill="none" xmlns="http://www.w3.org/2000/svg">
<path d="M29.2396 16.0417H5.76042C4.99527 16.0417 4.375 16.6619 4.375 17.4271V17.5729C4.375 18.3381 4.99527 18.9583 5.76042 18.9583H29.2396C30.0047 18.9583 30.625 18.3381 30.625 17.5729V17.4271C30.625 16.6619 30.0047 16.0417 29.2396 16.0417Z" fill="black"/>
<path d="M29.2396 23.3333H5.76042C4.99527 23.3333 4.375 23.9536 4.375 24.7188V24.8646C4.375 25.6297 4.99527 26.25 5.76042 26.25H29.2396C30.0047 26.25 30.625 25.6297 30.625 24.8646V24.7188C30.625 23.9536 30.0047 23.3333 29.2396 23.3333Z" fill="black"/>
<path d="M30.2083 9H16.7917C16.3544 9 16 9.63799 16 10.425V10.575C16 11.362 16.3544 12 16.7917 12H30.2083C30.6456 12 31 11.362 31 10.575V10.425C31 9.63799 30.6456 9 30.2083 9Z" fill="black"/>
</svg>
