<svg width="61" height="68" viewBox="0 0 61 68" fill="none" xmlns="http://www.w3.org/2000/svg">
<path d="M60.0493 57.6334L58.7721 52.5267C58.6904 52.2012 58.5444 51.8957 58.343 51.6288C58.1416 51.3618 57.889 51.1389 57.6003 50.9734C57.3101 50.8054 56.9898 50.6976 56.658 50.6564C56.3263 50.6152 55.9897 50.6414 55.6681 50.7334L40.6844 55.0134L30.5 50.6667L43.3869 47.3234C44.2666 46.5286 44.9039 45.4959 45.2236 44.3467L44.2131 40.6667L17.3333 44.0001H0.875V64.0001H17.3333L31.9977 67.2134C32.7949 67.2868 33.5978 67.2678 34.3908 67.1567L58.2882 60.6434C58.9151 60.4734 59.4515 60.0619 59.7827 59.4967C59.9462 59.2187 60.0539 58.9106 60.0997 58.5903C60.1454 58.27 60.1283 57.9437 60.0493 57.6301V57.6334ZM10.75 60.6667H4.16667V47.3334H10.75V60.6667ZM33.5349 63.9401C33.3866 63.9792 33.234 63.9994 33.0807 64.0001C32.9534 64.0006 32.8265 63.9871 32.7021 63.9601L17.3333 60.5434V47.4001L41.458 44.3734L23.9167 50.6667L39.4566 58.1067L40.5001 58.5301L41.5798 58.2201L55.7866 54.1634L56.6556 57.6367L33.5349 63.9401ZM20.625 0.666748V37.3334L47.5508 19.0001L20.625 0.666748ZM27.2083 13.2001L35.7667 19.0001L27.2083 24.8334V13.2001Z" fill="black"/>
</svg>
