<svg width="247" height="239" viewBox="0 0 247 239" fill="none" xmlns="http://www.w3.org/2000/svg">
<path d="M181.341 6.77925C168.26 6.77925 155.593 10.6755 144.7 18.0369C133.873 25.3652 125.567 35.6115 120.676 47.6484L117.343 55.872L110.944 49.7209C98.7078 37.9492 82.5591 31.4831 65.4819 31.4831C53.0471 31.4831 40.9106 35.0312 30.3658 41.7294C15.6098 51.1302 5.38013 65.7204 1.58336 82.7976C-2.21341 99.8913 0.870415 117.433 10.2712 132.189C12.3768 135.472 17.2347 142.402 26.2044 151.769C27.0334 152.632 27.912 153.527 28.8239 154.439L133.31 132.172L136.758 53.9819L174.51 151.355L176.997 68.3234L199.944 121.097L201.353 112.509L240.415 104.318C240.78 103.274 241.145 102.196 241.526 101.019C244.61 91.5351 245.837 84.9695 246.284 81.9023C248.838 64.593 244.51 47.3168 234.065 33.2572C223.62 19.1975 208.333 10.0455 191.007 7.49218C187.791 7.02794 184.541 6.77925 181.341 6.77925Z" fill="#29E3D8" fill-opacity="0.13"/>
<path d="M207.637 118.56L203.078 146.48L183.232 100.786L180.629 187.184L142.446 88.6499L140.257 138.074L35.075 160.49C53.7769 177.932 77.7348 194.794 106.385 210.661L156.24 238.266L190.51 192.721C205.283 173.091 225.129 143.479 237.415 112.293L207.637 118.56Z" fill="#29E3D8" fill-opacity="0.13"/>
</svg>
