<svg width="60" height="80" viewBox="0 0 60 80" fill="none" xmlns="http://www.w3.org/2000/svg">
<path d="M44.3116 79.9999C43.3783 79.9999 42.3189 79.8948 41.1292 79.6888C29.4294 77.6373 8.48086 66.2318 2.29257 53.027C-5.88423 35.5846 10.4273 26.6342 10.5913 26.546C11.0537 26.3021 11.6213 26.4745 11.8693 26.9369C12.1173 27.3952 11.9408 27.9669 11.4825 28.215C10.8729 28.5429 -3.40386 36.4296 4.0036 52.2282C9.93965 64.8865 30.1525 75.8464 41.4571 77.8264C44.1729 78.3015 46.2202 78.167 46.9223 77.4649C51.1936 73.1978 61.1192 58.8411 56.6083 43.2821C52.4842 43.0635 35.3361 41.693 35.3361 33.9534C35.3361 23.9479 39.5989 17.2719 47.3385 15.1573C47.6244 15.0816 47.9271 15.1405 48.1625 15.3171C48.3979 15.4978 48.5324 15.7711 48.5324 16.0696V21.4633C48.5324 24.0152 49.533 26.424 51.3533 28.2444C53.7832 30.6743 56.0912 35.3239 58.2143 42.0672C58.2185 42.0798 58.2227 42.0924 58.2269 42.105C63.2759 58.1979 53.9136 73.1474 48.2592 78.8018C47.4562 79.5963 46.1362 79.9999 44.3116 79.9999ZM46.6406 17.3602C38.8969 20.1433 37.2237 27.8366 37.2237 33.9534C37.2237 39.0571 49.7138 40.9363 55.9945 41.3525C53.6277 34.2225 51.4542 31.0148 50.0165 29.5771C47.8388 27.3994 46.6406 24.5196 46.6406 21.4633V17.3602Z" fill="#29ABE3"/>
<path d="M24.1829 29.1098C24.0651 29.1098 23.9474 29.0888 23.8297 29.0425C23.3463 28.8492 23.1108 28.2984 23.3042 27.815C23.6574 26.9321 32.1621 6.18115 49.9534 6.18115C50.4747 6.18115 50.8993 6.60576 50.8993 7.12705C50.8993 7.64835 50.4747 8.07296 49.9534 8.07296C33.4485 8.07296 25.1414 28.311 25.0573 28.517C24.9102 28.887 24.557 29.1098 24.1829 29.1098Z" fill="#29ABE3"/>
<path d="M58.7185 17.0153H52.5848C52.0635 17.0153 51.6389 16.5907 51.6389 16.0694C51.6389 15.5481 52.0635 15.1235 52.5848 15.1235H58.7185C59.2398 15.1235 59.6644 15.5481 59.6644 16.0694C59.6644 16.5907 59.2398 17.0153 58.7185 17.0153Z" fill="#29ABE3"/>
<path d="M6.56382 31.7418C6.04252 31.7418 5.61792 31.3172 5.61792 30.7959V9.49424C5.61792 8.97294 6.04252 8.54834 6.56382 8.54834C7.08512 8.54834 7.50972 8.97294 7.50972 9.49424V30.7959C7.50972 31.3214 7.08512 31.7418 6.56382 31.7418Z" fill="#29ABE3"/>
<path d="M14.7154 17.0152C14.1941 17.0152 13.7695 16.5906 13.7695 16.0693V9.49424C13.7695 8.97294 14.1941 8.54834 14.7154 8.54834C15.2367 8.54834 15.6613 8.97294 15.6613 9.49424V16.0693C15.6613 16.5906 15.2367 17.0152 14.7154 17.0152Z" fill="#29ABE3"/>
<path d="M14.7154 26.2177C14.522 26.2177 14.3287 26.1589 14.1647 26.0412C13.9167 25.8646 13.7695 25.5745 13.7695 25.2718V21.5891C13.7695 21.0678 14.1941 20.6432 14.7154 20.6432C15.2367 20.6432 15.6613 21.0678 15.6613 21.5891V23.9476L18.9573 22.8125C18.3267 19.7394 16.6703 9.27139 22.0262 3.91549C25.2381 0.699421 30.8882 -0.729941 36.0802 0.3631C40.5112 1.29219 43.866 3.90708 45.2786 7.53514C45.4677 8.0228 45.2281 8.56932 44.7404 8.7585C44.257 8.94768 43.7063 8.70806 43.5171 8.22039C41.9027 4.08365 37.9216 2.67951 35.6934 2.21286C31.0942 1.24594 26.1461 2.46931 23.3631 5.25236C17.9357 10.6797 20.95 23.0774 20.9794 23.2035C21.0971 23.6785 20.8323 24.1662 20.3698 24.3259L15.0223 26.1673C14.9214 26.2051 14.8205 26.2177 14.7154 26.2177Z" fill="#29ABE3"/>
<path d="M29.8289 19.5252C29.5556 19.5252 29.2824 19.4075 29.0974 19.1762C28.7148 18.7096 25.4021 14.514 26.3438 11.3148C26.6086 10.4235 27.3275 9.22536 29.2656 8.59897C34.0245 7.0603 35.0377 7.61943 36.7109 9.61634C36.9967 9.96107 37.3204 10.3478 37.7408 10.7682C38.1108 11.1382 38.1108 11.7352 37.7408 12.1051C37.3709 12.4751 36.7739 12.4751 36.404 12.1051C35.9415 11.6385 35.58 11.2139 35.2605 10.8355C34.1254 9.4776 33.8227 9.11186 29.8499 10.3983C28.9124 10.701 28.3575 11.176 28.1599 11.8487C27.5966 13.7573 29.7028 16.9271 30.5646 17.9865C30.8925 18.3901 30.8337 18.9871 30.4301 19.315C30.2493 19.4537 30.0349 19.5252 29.8289 19.5252Z" fill="#29ABE3"/>
<path d="M6.56354 45.7832C6.14314 45.7832 5.76058 45.5015 5.65127 45.0727C3.85616 38.1235 9.61565 34.9201 9.67451 34.8864C10.1369 34.6384 10.7087 34.8108 10.9567 35.269C11.2048 35.7272 11.0324 36.299 10.5784 36.547C10.3934 36.6521 6.06327 39.1073 7.48002 44.5977C7.61034 45.1022 7.30765 45.6193 6.80317 45.7496C6.71909 45.7748 6.63921 45.7832 6.56354 45.7832Z" fill="#29ABE3"/>
<path d="M6.56371 58.9882C6.15592 58.9882 5.77756 58.7233 5.65564 58.3113C3.46536 50.9249 10.856 44.6231 16.2582 40.0155C18.9823 37.6907 21.799 35.2902 21.799 33.9659C21.799 33.4446 22.2236 33.02 22.7449 33.02C23.2662 33.02 23.6908 33.4446 23.6908 33.9659C23.6908 36.1604 20.9498 38.4936 17.4857 41.4533C12.2013 45.9599 5.63042 51.5639 7.47178 57.7732C7.61892 58.2735 7.33304 58.799 6.83276 58.9503C6.74028 58.9756 6.65199 58.9882 6.56371 58.9882Z" fill="#29ABE3"/>
<path d="M27.1173 57.0039C27.0164 57.0039 26.9113 56.9871 26.8104 56.9535C23.1109 55.6881 21.4713 52.7032 19.8822 49.8151C18.4318 47.175 17.0613 44.682 14.1647 43.6982C13.6729 43.5301 13.408 42.9962 13.572 42.5001C13.7401 42.004 14.2782 41.7434 14.7701 41.9073C18.3603 43.1223 19.9747 46.0609 21.5344 48.9028C23.0142 51.5934 24.4099 54.1326 27.4158 55.1584C27.9076 55.3265 28.1725 55.8646 28.0043 56.3607C27.8782 56.7559 27.5125 57.0039 27.1173 57.0039Z" fill="#29ABE3"/>
<path d="M27.6722 50.9253C26.9996 50.9253 26.2429 50.8539 25.3853 50.7572C24.1703 50.6226 22.6611 50.4545 20.7987 50.4545C20.2774 50.4545 19.8528 50.0299 19.8528 49.5086C19.8528 48.9873 20.2774 48.5627 20.7987 48.5627C22.7662 48.5627 24.3343 48.735 25.5912 48.8738C28.9376 49.2437 29.543 49.311 30.6024 45.7334C30.7538 45.2331 31.2751 44.9514 31.7795 45.0986C32.2798 45.2499 32.5657 45.7754 32.4144 46.2757C31.2877 50.0593 29.9844 50.9253 27.6722 50.9253Z" fill="#29ABE3"/>
<path d="M41.6798 50.9373C41.1585 50.9373 40.7339 50.5127 40.7339 49.9914C40.7339 43.2986 43.559 39.9438 43.6809 39.8051C44.0214 39.4057 44.6184 39.3637 45.0136 39.7042C45.4087 40.0447 45.455 40.6375 45.1145 41.0369C45.0682 41.0873 42.6257 44.0764 42.6257 49.9914C42.6215 50.5127 42.2011 50.9373 41.6798 50.9373Z" fill="#29ABE3"/>
<path d="M37.068 71.5536C36.5467 71.5536 36.1221 71.129 36.1221 70.6077C36.1221 70.0864 36.5467 69.6618 37.068 69.6618C37.8289 69.6618 38.4595 69.3717 38.985 68.7832C41.3014 66.1935 41.0366 58.7945 40.7381 56.1628C40.6792 55.6457 41.0534 55.1748 41.5705 55.116C42.0876 55.0571 42.5584 55.4313 42.6131 55.9484C42.6593 56.3688 43.7397 66.2902 40.3933 70.0402C39.5021 71.0449 38.3796 71.5536 37.068 71.5536Z" fill="#29ABE3"/>
<path d="M46.4683 68.8673C46.2287 68.8673 45.9849 68.7749 45.7999 68.5899L41.2091 63.9991C40.8392 63.6291 40.8392 63.0322 41.2091 62.6622C41.5791 62.2923 42.176 62.2923 42.546 62.6622L47.1368 67.253C47.5067 67.623 47.5067 68.2199 47.1368 68.5899C46.9518 68.7749 46.7079 68.8673 46.4683 68.8673Z" fill="#29ABE3"/>
<path d="M24.1826 62.7882C23.9388 62.7882 23.6991 62.6957 23.5142 62.5107C20.4452 59.4376 23.2283 54.0943 23.346 53.8673C23.5898 53.4091 24.1616 53.2283 24.624 53.4763C25.0865 53.7202 25.2588 54.2919 25.0192 54.7501C24.9982 54.7964 22.7701 59.0887 24.851 61.1697C25.221 61.5396 25.221 62.1366 24.851 62.5065C24.6661 62.6957 24.4222 62.7882 24.1826 62.7882Z" fill="#29ABE3"/>
<path d="M52.585 64.2772C52.4715 64.2772 52.3538 64.2562 52.2403 64.2142C51.7568 64.0208 51.5172 63.4743 51.7063 62.9866C53.5729 58.2361 53.1904 49.5632 53.1862 49.4749C53.1609 48.9536 53.5645 48.5122 54.0858 48.487C54.6029 48.4239 55.0485 48.8653 55.0737 49.3866C55.0906 49.7566 55.4815 58.5514 53.4678 63.676C53.3165 64.0502 52.9591 64.2772 52.585 64.2772Z" fill="#29ABE3"/>
<path d="M37.068 50.3789C36.7738 50.3789 36.4837 50.2402 36.2987 49.9837C35.996 49.5591 36.0927 48.9706 36.5215 48.6679L41.3267 45.2416C41.7513 44.9389 42.3399 45.0398 42.6426 45.4644C42.9452 45.889 42.8486 46.4776 42.4197 46.7803L37.6146 50.2066C37.4506 50.3201 37.2572 50.3789 37.068 50.3789Z" fill="#29ABE3"/>
<path d="M58.5674 8.07296H54.0145C53.4932 8.07296 53.0686 7.64835 53.0686 7.12705C53.0686 6.60576 53.4932 6.18115 54.0145 6.18115H58.5674C59.0887 6.18115 59.5133 6.60576 59.5133 7.12705C59.5133 7.65255 59.0929 8.07296 58.5674 8.07296Z" fill="#29ABE3"/>
</svg>
