<svg width="30" height="30" viewBox="0 0 30 30" fill="none" xmlns="http://www.w3.org/2000/svg">
<path d="M11.6667 0.416504C10.8932 0.416504 10.1513 0.723795 9.60435 1.27078C9.05737 1.81776 8.75008 2.55962 8.75008 3.33317V8.74984H3.33341C2.55987 8.74984 1.818 9.05713 1.27102 9.60411C0.724039 10.1511 0.416748 10.893 0.416748 11.6665V18.3332C0.416748 19.9432 1.72341 21.2498 3.33341 21.2498H8.75008V26.6665C8.75008 28.2765 10.0567 29.5832 11.6667 29.5832H18.3334C19.107 29.5832 19.8488 29.2759 20.3958 28.7289C20.9428 28.1819 21.2501 27.4401 21.2501 26.6665V21.2498H26.6667C27.4403 21.2498 28.1822 20.9425 28.7291 20.3956C29.2761 19.8486 29.5834 19.1067 29.5834 18.3332V11.6665C29.5834 10.893 29.2761 10.1511 28.7291 9.60411C28.1822 9.05713 27.4403 8.74984 26.6667 8.74984H21.2501V3.33317C21.2501 2.55962 20.9428 1.81776 20.3958 1.27078C19.8488 0.723795 19.107 0.416504 18.3334 0.416504H11.6667Z" fill="#1BD2DD"/>
</svg>
