<svg width="70" height="80" viewBox="0 0 70 80" fill="none" xmlns="http://www.w3.org/2000/svg">
<path d="M24.0223 80.0002C22.9249 80.0002 21.8583 79.5833 21.0307 78.8048L12.2828 70.5718C7.76477 66.3174 5.86439 59.9235 7.32339 53.8913L7.75864 52.1013C8.74562 48.0247 7.9732 43.6906 5.64982 40.2024L2.92185 36.1074C-1.27739 29.8116 -0.921836 21.6032 3.80461 15.6875C4.19082 15.2032 4.90193 15.1235 5.38622 15.5097C5.87051 15.8959 5.95021 16.607 5.564 17.0913C1.45058 22.2346 1.13794 29.3764 4.79158 34.8568L7.51956 38.9519C10.1924 42.9611 11.069 47.945 9.94102 52.6285L9.50577 54.4186C8.2368 59.6661 9.89198 65.2262 13.8215 68.9289L22.5694 77.1619C23.1211 77.683 23.8813 77.8669 24.6169 77.6646C25.3464 77.4623 25.8981 76.8983 26.1004 76.1749L31.2621 57.2998C31.7219 55.614 33.2054 54.4799 34.9526 54.4799C36.6997 54.4799 38.1832 55.614 38.643 57.2998L43.8047 76.1749C44.007 76.9044 44.5587 77.4623 45.2882 77.6646C46.0238 77.8669 46.784 77.683 47.3357 77.1619L56.0836 68.9289C60.0131 65.2262 61.6744 59.6661 60.3993 54.4186L59.9641 52.6346C58.83 47.945 59.7128 42.9611 62.3856 38.958L65.1135 34.863C68.7672 29.3825 68.4545 22.2407 64.3411 17.0974L59.7128 11.3166C55.0354 5.46828 46.925 3.93572 40.433 7.67519C37.0552 9.62461 32.8499 9.62461 29.4598 7.67519C24.7518 4.95947 18.9219 5.00238 14.2506 7.77327C13.7173 8.08591 13.0246 7.91426 12.7119 7.38093C12.3931 6.8476 12.5709 6.15488 13.1042 5.8361C18.4744 2.64836 25.1748 2.59931 30.5878 5.71963C33.279 7.27059 36.6261 7.27059 39.3112 5.71963C46.7656 1.4223 56.0898 3.18169 61.4721 9.90047L66.1005 15.6813C70.827 21.597 71.1825 29.8055 66.9833 36.1013L64.2553 40.1963C61.9319 43.6844 61.1656 48.0185 62.1465 52.0952L62.5817 53.8791C64.0407 59.9113 62.1403 66.3052 57.6223 70.5596L48.8744 78.7925C47.7403 79.8531 46.1771 80.2393 44.6813 79.8224C43.1855 79.4056 42.0453 78.2592 41.6346 76.7634L36.4729 57.8883C36.2399 57.0301 35.5349 56.7297 34.9526 56.7297C34.3702 56.7297 33.6652 57.0362 33.4323 57.8883L28.2705 76.7634C27.8598 78.2592 26.7196 79.4056 25.2299 79.8286C24.8253 79.945 24.4269 80.0002 24.0223 80.0002Z" fill="#29ABE3"/>
<path d="M8.94168 21.4008C8.32253 21.4008 7.81984 20.8981 7.81984 20.279C7.81984 15.6935 5.77233 11.8192 3.34474 11.8192C2.72558 11.8192 2.2229 11.3165 2.2229 10.6973C2.2229 10.0782 2.72558 9.5755 3.34474 9.5755C5.77233 9.5755 7.81984 5.70116 7.81984 1.12184C7.81984 0.502684 8.32253 0 8.94168 0C9.56084 0 10.0635 0.502684 10.0635 1.12184C10.0635 5.70729 12.111 9.5755 14.5386 9.5755C15.1578 9.5755 15.6605 10.0782 15.6605 10.6973C15.6605 11.3165 15.1578 11.8192 14.5386 11.8192C12.111 11.8192 10.0635 15.6935 10.0635 20.279C10.0635 20.892 9.56084 21.4008 8.94168 21.4008ZM6.39149 10.6912C7.4275 11.5127 8.30414 12.7449 8.94168 14.2652C9.57923 12.7449 10.4559 11.5127 11.4919 10.6912C10.4559 9.86975 9.57923 8.63756 8.94168 7.11725C8.30414 8.63756 7.4275 9.86975 6.39149 10.6912Z" fill="#29ABE3"/>
<path d="M61.4172 35.8075C61.2026 35.8075 60.9819 35.7462 60.7919 35.6175C60.2769 35.2742 60.1359 34.5753 60.4792 34.0604C61.9689 31.829 62.6923 29.2359 62.5758 26.5569C62.4593 23.878 61.5152 21.3584 59.8417 19.2619L55.9306 14.3761C54.2386 12.2672 51.9704 10.7837 49.365 10.091C48.7643 9.93161 48.4087 9.31245 48.5681 8.71781C48.7275 8.11705 49.3405 7.76149 49.9474 7.92088C53.0187 8.73621 55.6976 10.4833 57.69 12.9722L61.6011 17.8581C63.575 20.3286 64.6907 23.3079 64.8317 26.465C64.9666 29.6221 64.1145 32.6872 62.3612 35.3171C62.1344 35.6297 61.7789 35.8075 61.4172 35.8075Z" fill="#29ABE3"/>
</svg>
