<svg width="60" height="73" viewBox="0 0 60 73" fill="none" xmlns="http://www.w3.org/2000/svg">
<path d="M52.5 23H7.5C5.51149 23.002 3.60498 23.7928 2.19889 25.1989C0.792799 26.605 0.00198554 28.5115 0 30.5V45.5C0.00132369 46.8257 0.528533 48.0967 1.46593 49.0341C2.40332 49.9715 3.67432 50.4987 5 50.5V68C5.00132 69.3257 5.52853 70.5967 6.46593 71.5341C7.40332 72.4715 8.67432 72.9987 10 73H20C21.3257 72.9987 22.5967 72.4715 23.5341 71.5341C24.4715 70.5967 24.9987 69.3257 25 68V38H20V68H10V45.5H5V30.5C5 29.837 5.26339 29.2011 5.73223 28.7322C6.20107 28.2634 6.83696 28 7.5 28H52.5C53.163 28 53.7989 28.2634 54.2678 28.7322C54.7366 29.2011 55 29.837 55 30.5V45.5H50V68H40V38H35V68C35.0013 69.3257 35.5285 70.5967 36.4659 71.5341C37.4033 72.4715 38.6743 72.9987 40 73H50C51.3257 72.9987 52.5967 72.4715 53.5341 71.5341C54.4715 70.5967 54.9987 69.3257 55 68V50.5C56.3257 50.4987 57.5967 49.9715 58.5341 49.0341C59.4715 48.0967 59.9987 46.8257 60 45.5V30.5C59.998 28.5115 59.2072 26.605 57.8011 25.1989C56.395 23.7928 54.4885 23.002 52.5 23ZM15 20.5C13.0222 20.5 11.0888 19.9135 9.4443 18.8147C7.79981 17.7159 6.51808 16.1541 5.7612 14.3268C5.00433 12.4996 4.8063 10.4889 5.19215 8.5491C5.578 6.60929 6.53041 4.82746 7.92893 3.42894C9.32746 2.03041 11.1093 1.078 13.0491 0.692152C14.9889 0.306299 16.9996 0.504333 18.8268 1.26121C20.6541 2.01809 22.2159 3.29981 23.3147 4.9443C24.4135 6.58879 25 8.52219 25 10.5C24.9974 13.1514 23.9429 15.6934 22.0681 17.5681C20.1934 19.4429 17.6514 20.4974 15 20.5ZM15 5.5C14.0111 5.5 13.0444 5.79325 12.2221 6.34266C11.3999 6.89206 10.759 7.67296 10.3806 8.58659C10.0022 9.50022 9.90315 10.5056 10.0961 11.4755C10.289 12.4454 10.7652 13.3363 11.4645 14.0355C12.1637 14.7348 13.0546 15.211 14.0245 15.4039C14.9945 15.5969 15.9998 15.4978 16.9134 15.1194C17.827 14.741 18.6079 14.1001 19.1573 13.2779C19.7068 12.4556 20 11.4889 20 10.5C19.9987 9.17433 19.4715 7.90333 18.5341 6.96593C17.5967 6.02854 16.3257 5.50133 15 5.5ZM45 20.5C43.0222 20.5 41.0888 19.9135 39.4443 18.8147C37.7998 17.7159 36.5181 16.1541 35.7612 14.3268C35.0043 12.4996 34.8063 10.4889 35.1921 8.5491C35.578 6.60929 36.5304 4.82746 37.9289 3.42894C39.3275 2.03041 41.1093 1.078 43.0491 0.692152C44.9889 0.306299 46.9996 0.504333 48.8268 1.26121C50.6541 2.01809 52.2159 3.29981 53.3147 4.9443C54.4135 6.58879 55 8.52219 55 10.5C54.9974 13.1514 53.9429 15.6934 52.0681 17.5681C50.1934 19.4429 47.6514 20.4974 45 20.5ZM45 5.5C44.0111 5.5 43.0444 5.79325 42.2221 6.34266C41.3999 6.89206 40.759 7.67296 40.3806 8.58659C40.0022 9.50022 39.9031 10.5056 40.0961 11.4755C40.289 12.4454 40.7652 13.3363 41.4645 14.0355C42.1637 14.7348 43.0546 15.211 44.0245 15.4039C44.9945 15.5969 45.9998 15.4978 46.9134 15.1194C47.827 14.741 48.6079 14.1001 49.1573 13.2779C49.7068 12.4556 50 11.4889 50 10.5C49.9987 9.17433 49.4715 7.90333 48.5341 6.96593C47.5967 6.02854 46.3257 5.50133 45 5.5Z" fill="black"/>
</svg>
