<svg width="75" height="80" viewBox="0 0 75 80" fill="none" xmlns="http://www.w3.org/2000/svg">
<path d="M66.0086 13.593H68.9492C70.5261 13.593 71.9567 14.2397 72.9933 15.2762C74.0297 16.3127 74.6721 17.7433 74.6721 19.3156V57.8719C74.6721 59.4487 74.0297 60.8792 72.9933 61.9156C71.9567 62.9522 70.5261 63.5944 68.9492 63.5944H60.4453C59.6657 72.2756 58.3238 79.0125 58.3149 79.0525C58.1907 79.6902 57.5797 80.102 56.9419 79.9781C56.3083 79.8541 55.8964 79.2384 56.0207 78.6052C57.1189 72.9889 57.8499 67.1334 58.2885 61.4198C58.7844 55.0417 58.9086 47.8666 57.9472 41.7231C56.8047 42.0509 55.6663 42.4141 54.5457 42.8081C49.0402 44.7305 44.0661 47.3305 40.0755 50.205C36.1955 52.9998 33.268 56.0294 31.7263 58.9127L35.8588 78.5916C35.9916 79.2252 35.5841 79.8406 34.9508 79.9736C34.3219 80.1064 33.7018 79.6989 33.5689 79.0655L30.4947 64.427L27.4164 79.0655C27.2883 79.6989 26.6682 80.1064 26.0346 79.9736C25.4013 79.8406 24.9982 79.2252 25.1313 78.5916L29.2636 58.9127C27.7222 56.0294 24.79 52.9997 20.9099 50.205C16.9194 47.3306 11.9453 44.7305 6.44441 42.8081C5.32378 42.4139 4.18972 42.0553 3.04722 41.7275C2.89644 42.7241 2.768 43.7472 2.66628 44.788C2.28081 48.792 2.26738 53.0794 2.45363 57.2075C2.48019 57.8542 1.97972 58.3991 1.33738 58.4256C0.690657 58.4566 0.14597 57.9561 0.119095 57.3095C-0.0713739 53.0883 -0.0579362 48.6947 0.340658 44.5666C0.464564 43.2953 0.624095 42.0462 0.828001 40.8328C1.25316 38.2684 1.88644 35.6817 2.9141 33.2944C3.12675 32.7939 3.32175 32.32 3.50331 31.8592C3.58722 31.6467 3.66722 31.4339 3.74691 31.2214C2.76363 30.4153 1.93534 29.3434 1.32394 28.0856C0.601907 26.5975 0.181439 24.8434 0.181439 22.9742C0.181439 20.9014 0.695032 18.9703 1.56753 17.3848C2.17003 16.2908 2.94519 15.3563 3.84425 14.6431C3.25956 14.0628 2.75909 13.3897 2.3605 12.6411C1.69613 11.4055 1.31519 9.97031 1.31519 8.45109C1.31519 6.14359 2.19238 4.03969 3.60503 2.51156C5.04066 0.960937 7.02488 0 9.2216 0C9.86831 0 10.3953 0.527031 10.3953 1.17375C10.3953 1.82047 9.86831 2.34281 9.2216 2.34281C7.69816 2.34281 6.32066 3.01172 5.31535 4.09687C4.29206 5.20437 3.65878 6.74125 3.65878 8.45078C3.65878 9.58484 3.93769 10.6433 4.4205 11.5423C4.91222 12.4681 5.62535 13.2344 6.48019 13.7703C6.67066 13.8853 6.83456 14.0627 6.93191 14.2841C7.19769 14.8733 6.93644 15.5686 6.34722 15.8344C5.24894 16.3259 4.30097 17.2739 3.61894 18.5141C2.93238 19.763 2.52488 21.2998 2.52488 22.9741C2.52488 24.4845 2.85722 25.8886 3.42847 27.0712C3.9955 28.2317 4.78831 29.1752 5.72285 29.7731C6.20988 30.0477 6.44488 30.6412 6.2541 31.1816C6.12128 31.5492 5.9841 31.9167 5.84675 32.2845C8.40238 34.0872 11.8397 35.5977 15.8878 36.6783C20.1975 37.8342 25.1803 38.4898 30.4952 38.4898C33.0113 38.4898 35.4471 38.3436 37.7725 38.0691C40.1642 37.7812 42.445 37.3605 44.5757 36.8158C45.2003 36.6564 45.8382 37.0372 45.9975 37.6617C46.1571 38.2906 45.776 38.9284 45.1516 39.088C42.9327 39.6548 40.5497 40.0934 38.0472 40.3945C35.6244 40.6823 33.0908 40.8373 30.4952 40.8373C24.981 40.8373 19.7897 40.1464 15.2853 38.9417C11.2105 37.852 7.67597 36.3284 4.94769 34.4991C4.33222 35.983 3.84941 37.6395 3.47284 39.4156C4.73081 39.7744 5.97988 40.1684 7.2155 40.5981C12.9291 42.5956 18.1113 45.3108 22.2747 48.3094C25.8403 50.8739 28.6749 53.6642 30.4952 56.415C32.3114 53.6644 35.1505 50.8739 38.7116 48.3094C42.8796 45.3109 48.0572 42.5958 53.7753 40.5981C55.011 40.1684 56.2644 39.7698 57.5222 39.4156C57.1457 37.6439 56.6539 35.9875 56.0385 34.4991C55.4361 34.9067 54.7939 35.2966 54.1161 35.6684C52.9647 36.3019 51.6977 36.8909 50.3425 37.4223C49.7402 37.6572 49.0624 37.3605 48.8277 36.758C48.593 36.1602 48.8897 35.4781 49.4921 35.2434C50.75 34.747 51.9236 34.2023 52.9914 33.6178C53.7666 33.1925 54.4841 32.7452 55.135 32.2847C54.5503 30.7655 54.0321 29.2108 53.5716 27.6384C52.9603 25.5258 52.4686 23.4086 52.0966 21.34H44.7C44.5227 21.8183 44.248 22.248 43.8938 22.6023C43.2694 23.2269 42.4057 23.6122 41.4577 23.6122C40.5097 23.6122 39.6461 23.2269 39.0214 22.6023C38.3971 21.9778 38.0116 21.1142 38.0116 20.1662V18.2131H27.1027C26.1549 18.2131 25.2911 17.8277 24.6667 17.2033C24.0421 16.5788 23.6569 15.715 23.6569 14.7672C23.6569 13.8192 24.0421 12.9555 24.6667 12.3309C25.2911 11.7064 26.1547 11.3211 27.1027 11.3211H38.0116V9.36766C38.0116 8.41531 38.3971 7.55609 39.0214 6.93156C39.6461 6.30719 40.5097 5.92172 41.4577 5.92172C42.4057 5.92172 43.2694 6.30719 43.8938 6.93156C44.2482 7.28594 44.5227 7.71563 44.7 8.19391H50.6263C50.4402 3.91516 50.5994 1.11594 50.5994 1.10719C50.6352 0.465 51.1841 -0.0310938 51.8308 0.00421875C52.4733 0.0398437 52.9693 0.593437 52.9339 1.23563C52.9339 1.24453 52.7789 3.97734 52.9694 8.19391H54.8428C56.2958 8.19391 57.5891 9.11078 58.085 10.4705H63.0103C63.8341 10.4705 64.5872 10.807 65.1274 11.3519C65.756 11.9764 66.0086 12.7205 66.0086 13.593ZM60.6358 61.2513H68.9492C69.8794 61.2513 70.7211 60.8703 71.3366 60.2591C71.9478 59.6436 72.3288 58.802 72.3288 57.8719V19.3156C72.3288 18.3898 71.9478 17.5439 71.3366 16.9328C70.7211 16.3172 69.8794 15.9362 68.9492 15.9362H66.0086C66.0086 16.8131 65.756 17.5528 65.1269 18.1817C64.5867 18.7266 63.8336 19.0633 63.0099 19.0633H58.0846C57.5886 20.4186 56.2953 21.3397 54.8424 21.3397H54.4749C54.8246 23.2133 55.2677 25.1091 55.8167 26.9914C56.4325 29.1041 57.1808 31.2212 58.0757 33.2942C59.0989 35.6683 59.7278 38.2416 60.153 40.7973C61.216 47.1797 61.123 54.6297 60.6358 61.2513ZM4.96988 78.605C5.09378 79.2383 4.67753 79.8539 4.04394 79.978C3.41066 80.1019 2.79519 79.69 2.67097 79.0523C2.66675 79.0345 1.22706 71.7884 0.460658 62.6553C0.407533 62.0086 0.890345 61.4417 1.53238 61.3886C2.17925 61.3355 2.7416 61.8183 2.79503 62.4605C3.55222 71.4695 4.96519 78.5828 4.96988 78.605ZM31.266 32.4705C31.6557 31.9522 32.3864 31.8503 32.9003 32.2356C33.4185 32.6211 33.5205 33.3563 33.135 33.87C32.5149 34.6983 31.5272 35.1945 30.495 35.1945C29.4586 35.1945 28.4753 34.6983 27.8552 33.87C27.4655 33.3563 27.5718 32.6211 28.0857 32.2356C28.6038 31.8503 29.3347 31.9522 29.7199 32.4705C29.9103 32.7184 30.1807 32.8514 30.495 32.8514C30.805 32.8512 31.0797 32.7184 31.266 32.4705ZM20.5516 13.593C21.2025 13.593 21.7253 14.1202 21.7253 14.767C21.7253 15.4136 21.2025 15.9362 20.5516 15.9362H19.9977C19.3513 15.9362 18.8286 15.4134 18.8286 14.767C18.8286 14.1202 19.3514 13.593 19.9977 13.593H20.5516ZM15.4714 13.593C16.1182 13.593 16.6452 14.1202 16.6452 14.767C16.6452 15.4136 16.1182 15.9362 15.4714 15.9362H14.9178C14.2711 15.9362 13.7441 15.4134 13.7441 14.767C13.7441 14.1202 14.2711 13.593 14.9178 13.593H15.4714ZM10.391 13.593C11.0377 13.593 11.5603 14.1202 11.5603 14.767C11.5603 15.4136 11.0375 15.9362 10.391 15.9362H9.83738C9.18613 15.9362 8.66363 15.4134 8.66363 14.767C8.66363 14.1202 9.18613 13.593 9.83738 13.593H10.391ZM38.0114 15.8697V13.6639H27.1025C26.8013 13.6639 26.5224 13.788 26.3232 13.9872C26.1239 14.1864 25.9997 14.4656 25.9997 14.7669C25.9997 15.068 26.1239 15.3427 26.3232 15.5464C26.5224 15.7456 26.8014 15.8695 27.1025 15.8695H38.0114V15.8697ZM42.5603 20.1659V9.36766C42.5603 9.06641 42.4361 8.78734 42.2369 8.58813C42.0377 8.38891 41.7586 8.265 41.4575 8.265C41.1564 8.265 40.8816 8.38891 40.6778 8.58813C40.4786 8.78734 40.3547 9.06641 40.3547 9.36766V20.1659C40.3547 20.4672 40.4786 20.7419 40.6778 20.9455C40.8817 21.1447 41.1563 21.2687 41.4575 21.2687C41.7588 21.2687 42.0377 21.1447 42.2369 20.9455C42.4361 20.7419 42.5603 20.4672 42.5603 20.1659ZM55.9453 17.8894V11.6398C55.9453 11.0375 55.4449 10.5369 54.8424 10.5369H44.9033V18.9922H54.8424C55.4449 18.9923 55.9453 18.4963 55.9453 17.8894ZM63.01 12.8136H58.2885V16.7203H63.01C63.3689 16.7203 63.6655 16.4191 63.6655 16.0648V13.4691C63.6655 13.1103 63.3689 12.8136 63.01 12.8136Z" fill="#31AAFE"/>
</svg>
