<svg width="67" height="80" viewBox="0 0 67 80" fill="none" xmlns="http://www.w3.org/2000/svg">
<path d="M14.9112 33.383L13.6239 32.9968V34.3408V34.3461V34.3514V34.3567V34.3619V34.3672V34.3724V34.3777V34.3829V34.3882V34.3934V34.3987V34.4039V34.4092V34.4144V34.4196V34.4249V34.4301V34.4353V34.4406V34.4458V34.451V34.4562V34.4614V34.4666V34.4718V34.477V34.4822V34.4874V34.4926V34.4978V34.503V34.5082V34.5134V34.5186V34.5238V34.5289V34.5341V34.5393V34.5445V34.5496V34.5548V34.5599V34.5651V34.5703V34.5754V34.5806V34.5857V34.5909V34.596V34.6012V34.6063V34.6114V34.6166V34.6217V34.6268V34.632V34.6371V34.6422V34.6474V34.6525V34.6576V34.6627V34.6678V34.6729V34.678V34.6831V34.6883V34.6934V34.6985V34.7036V34.7087V34.7137V34.7188V34.7239V34.729V34.7341V34.7392V34.7443V34.7493V34.7544V34.7595V34.7646V34.7696V34.7747V34.7798V34.7848V34.7899V34.795V34.8V34.8051V34.8101V34.8152V34.8203V34.8253V34.8304V34.8354V34.8404V34.8455V34.8505V34.8556V34.8606V34.8656V34.8707V34.8757V34.8807V34.8858V34.8908V34.8958V34.9008V34.9059V34.9109V34.9159V34.9209V34.9259V34.931V34.936V34.941V34.946V34.951V34.956V34.961V34.966V34.971V34.976V34.981V34.986V34.991V34.996V35.001V35.006V35.011V35.0159V35.0209V35.0259V35.0309V35.0359V35.0409V35.0458V35.0508V35.0558V35.0608V35.0657V35.0707V35.0757V35.0807V35.0856V35.0906V35.0956V35.1005V35.1055V35.1104V35.1154V35.1204V35.1253V35.1303V35.1352V35.1402V35.1452V35.1501V35.1551V35.16V35.165V35.1699V35.1749V35.1798V35.1847V35.1897V35.1946V35.1996V35.2045V35.2095V35.2144V35.2193V35.2243V35.2292V35.2341V35.2391V35.244V35.249V35.2539V35.2588V35.2637V35.2687V35.2736V35.2785V35.2835V35.2884V35.2933V35.2982V35.3032V35.3081V35.313V35.3179V35.3228V35.3278V35.3327V35.3376V35.3425V35.3474V35.3524V35.3573V35.3622V35.3671V35.372V35.3769V35.3818V35.3868V35.3917V35.3966V35.4015V35.4064V35.4113V35.4162V35.4211V35.426V35.4309V35.4359V35.4408V35.4457V35.4506V35.4555V35.4604V35.4653V35.4702V35.4751V35.48V35.4849V35.4898V35.4947V35.4996V35.5045V35.5094V35.5143V35.5192V35.5241V35.529V35.5339V35.5388V35.5437V35.5486V35.5535V35.5584V35.5633V35.5682V35.5731V35.578V35.5829V35.5878V35.5927V35.5976V35.6025V35.6074V35.6123V35.6172V35.6221V35.627V35.6319V35.6368V35.6417V35.6466V35.6515V35.6564V35.6613V35.6662V35.6711V35.676V35.6809V35.6858V35.6907V35.6956V35.7005V35.7054V35.7103V35.7152V35.7201V35.725V35.7299V35.7348V35.7397V35.7446V35.7495V35.7544V35.7593V35.7642V35.7691V35.774V35.7789V35.7838V35.7887V35.7936V35.7985V35.8034V35.8084V35.8133V35.8182V35.8231V35.828V35.8329V35.8378V35.8427V35.8476V35.8525V35.8574V35.8624V35.8673V35.8722V35.8771V35.882V35.8869V35.8918V35.8967V35.9017V35.9066V35.9115V35.9164V35.9213V35.9263V35.9312V35.9361V35.941V35.9459V35.9509V35.9558V35.9607V35.9656V35.9706V35.9755V35.9804V35.9853V35.9903V35.9952V36.0001V36.0051V36.01V36.0149V36.0199V36.0248V36.0297V36.0347V36.0396V36.0446V36.0495V36.0544V36.0594V36.0643V36.0693V36.0742V36.0792V36.0841V36.0891V36.094V36.099V36.1039V36.1089V36.1138V36.1188V36.1237V36.1287V36.1337V36.1386V36.1436V36.1485V36.1535V36.1585V36.1634V36.1684V36.1734V36.1783V36.1833V36.1883V36.1933V36.1982V36.2032V36.2082V36.2132V36.2181V36.2231V36.2281V36.2331V36.2381V36.2431V36.2481V36.253V36.258V36.263V36.268V36.273V36.278V36.283V36.288V36.293V36.298V36.303V36.308V36.3131V36.3181V36.3231V36.3281V36.3331V36.3381V36.3431V36.3482V36.3532V36.3582V36.3632V36.3683V36.3733V36.3783V36.3833V36.3884V36.3934V36.3985V36.4035V36.4085V36.4136V36.4186V36.4237V36.4287V36.4338V36.4388V36.4439V36.4489V36.454V36.459V36.4641V36.4692V36.4742V36.4793V36.4844V36.4894V36.4945V36.4996V36.5047V36.5098V36.5148V36.5199V36.525V36.5301V36.5352V36.5403V36.5454V36.5505V36.5556V36.5607V36.5658V36.5709V36.576V36.5811V36.5862V36.5913V36.5964V36.6016V36.6067V36.6118V36.6169V36.622V36.6272V36.6323V36.6374V36.6426V36.6477V36.6529V36.658V36.6631V36.6683V36.6734V36.6786V36.6838V36.6889V36.6941V36.6992V36.7044V36.7096V36.7147V36.7199V36.7251V36.7303V36.7355V36.7406V36.7458V36.751V36.7562V36.7614V36.7666V36.7718V36.777V36.7822V36.7874V36.7926V36.7978V36.803V36.8083V36.8135V36.8187V36.8239V36.8291V36.8344V36.8396V36.8448V36.8501V36.8553V36.8606V36.8658V36.8711V36.8763V36.8816V36.8868V36.8921V36.8974V36.9026V36.9079V36.9132C13.6239 42.5649 12.4942 47.955 10.2393 52.9658L10.2349 52.9757L10.2307 52.9857C6.71006 61.2842 4.76197 69.9576 4.62809 79H4.05555C4.1859 69.9634 6.08408 61.058 9.75114 52.6221C11.9974 47.5992 13.0516 42.3158 13.0516 36.7846V36.7614C13.0516 35.4905 13.0516 34.1624 12.918 32.8265L12.8689 32.3363L12.4503 32.0764C8.99083 29.9292 6.62069 26.1226 6.62069 21.7363C6.62069 18.7649 7.68889 15.916 9.70998 13.6571L10.0287 13.3009L9.95167 12.8292L8.05703 1.22451L8.65456 1.13488L10.2935 10.9683L10.652 13.1194L12.0481 11.444C13.2527 9.99846 14.0698 8.31353 14.2826 6.40193H14.8568C14.623 8.59189 13.6321 10.6386 12.1162 12.1546L10.5727 13.698L10.5613 13.7094L10.5503 13.7212C8.47119 15.9389 7.19303 18.7484 7.19303 21.865C7.19303 28.205 12.3996 33.4116 18.7397 33.4116C22.6031 33.4116 26.3311 31.8936 29.0931 29.1315L30.4438 27.7808L30.8303 28.1672L29.4795 29.518C26.5781 32.4194 22.8444 33.9839 18.7397 33.9839C17.4422 33.9839 16.1255 33.7473 14.9112 33.383Z" fill="#31AAFE" stroke="#31AAFE" stroke-width="2"/>
<path d="M55.3826 32.2053L54.9639 32.4652L54.9149 32.9554C54.7813 34.2913 54.7813 35.6193 54.7813 36.8903V36.9135C54.7813 42.4457 55.8359 47.73 58.0829 52.7537C61.7482 61.0626 63.6469 69.9624 63.7773 79.0003H63.2048C63.0709 69.9587 61.123 61.2878 57.6001 53.1095L57.5973 53.1031C55.3374 47.9557 54.209 42.562 54.209 37.0421V37.0368V37.0315V37.0263V37.021V37.0157V37.0104V37.0052V36.9999V36.9946V36.9893V36.9841V36.9788V36.9735V36.9682V36.963V36.9577V36.9524V36.9471V36.9419V36.9366V36.9313V36.926V36.9208V36.9155V36.9102V36.9049V36.8997V36.8944V36.8891V36.8838V36.8786V36.8733V36.868V36.8627V36.8575V36.8522V36.8469V36.8416V36.8363V36.8311V36.8258V36.8205V36.8153V36.81V36.8047V36.7994V36.7941V36.7889V36.7836V36.7783V36.773V36.7678V36.7625V36.7572V36.7519V36.7467V36.7414V36.7361V36.7308V36.7256V36.7203V36.715V36.7097V36.7045V36.6992V36.6939V36.6886V36.6834V36.6781V36.6728V36.6675V36.6623V36.657V36.6517V36.6464V36.6412V36.6359V36.6306V36.6253V36.6201V36.6148V36.6095V36.6042V36.599V36.5937V36.5884V36.5831V36.5779V36.5726V36.5673V36.562V36.5568V36.5515V36.5462V36.5409V36.5357V36.5304V36.5251V36.5198V36.5146V36.5093V36.504V36.4987V36.4935V36.4882V36.4829V36.4776V36.4724V36.4671V36.4618V36.4565V36.4513V36.446V36.4407V36.4354V36.4302V36.4249V36.4196V36.4143V36.409V36.4038V36.3985V36.3932V36.388V36.3827V36.3774V36.3721V36.3668V36.3616V36.3563V36.351V36.3457V36.3405V36.3352V36.3299V36.3246V36.3194V36.3141V36.3088V36.3035V36.2983V36.293V36.2877V36.2824V36.2772V36.2719V36.2666V36.2613V36.2561V36.2508V36.2455V36.2402V36.235V36.2297V36.2244V36.2191V36.2139V36.2086V36.2033V36.198V36.1928V36.1875V36.1822V36.1769V36.1717V36.1664V36.1611V36.1558V36.1506V36.1453V36.14V36.1347V36.1295V36.1242V36.1189V36.1136V36.1084V36.1031V36.0978V36.0925V36.0873V36.082V36.0767V36.0714V36.0662V36.0609V36.0556V36.0503V36.0451V36.0398V36.0345V36.0292V36.024V36.0187V36.0134V36.0081V36.0028V35.9976V35.9923V35.987V35.9818V35.9765V35.9712V35.9659V35.9606V35.9554V35.9501V35.9448V35.9395V35.9343V35.929V35.9237V35.9184V35.9132V35.9079V35.9026V35.8973V35.8921V35.8868V35.8815V35.8762V35.871V35.8657V35.8604V35.8551V35.8499V35.8446V35.8393V35.834V35.8288V35.8235V35.8182V35.8129V35.8077V35.8024V35.7971V35.7918V35.7866V35.7813V35.776V35.7707V35.7655V35.7602V35.7549V35.7496V35.7444V35.7391V35.7338V35.7285V35.7233V35.718V35.7127V35.7074V35.7022V35.6969V35.6916V35.6863V35.6811V35.6758V35.6705V35.6652V35.66V35.6547V35.6494V35.6441V35.6389V35.6336V35.6283V35.623V35.6178V35.6125V35.6072V35.6019V35.5966V35.5914V35.5861V35.5808V35.5756V35.5703V35.565V35.5597V35.5544V35.5492V35.5439V35.5386V35.5333V35.5281V35.5228V35.5175V35.5122V35.507V35.5017V35.4964V35.4911V35.4859V35.4806V35.4753V35.47V35.4648V35.4595V35.4542V35.4489V35.4437V35.4384V35.4331V35.4278V35.4226V35.4173V35.412V35.4067V35.4015V35.3962V35.3909V35.3856V35.3804V35.3751V35.3698V35.3645V35.3593V35.354V35.3487V35.3434V35.3382V35.3329V35.3276V35.3223V35.3171V35.3118V35.3065V35.3012V35.296V35.2907V35.2854V35.2801V35.2749V35.2696V35.2643V35.259V35.2538V35.2485V35.2432V35.2379V35.2327V35.2274V35.2221V35.2168V35.2116V35.2063V35.201V35.1957V35.1905V35.1852V35.1799V35.1746V35.1693V35.1641V35.1588V35.1535V35.1482V35.143V35.1377V35.1324V35.1271V35.1219V35.1166V35.1113V35.106V35.1008V35.0955V35.0902V35.0849V35.0797V35.0744V35.0691V35.0638V35.0586V35.0533V35.048V35.0427V35.0375V35.0322V35.0269V35.0216V35.0164V35.0111V35.0058V35.0005V34.9953V34.99V34.9847V34.9794V34.9742V34.9689V34.9636V34.9583V34.9531V34.9478V34.9425V34.9372V34.932V34.9267V34.9214V34.9161V34.9109V34.9056V34.9003V34.895V34.8898V34.8845V34.8792V34.8739V34.8687V34.8634V34.8581V34.8528V34.8476V34.8423V34.837V34.8317V34.8265V34.8212V34.8159V34.8106V34.8054V34.8001V34.7948V34.7895V34.7843V34.779V34.7737V34.7684V34.7631V34.7579V34.7526V34.7473V34.7421V34.7368V34.7315V34.7262V34.7209V34.7157V34.7104V34.7051V34.6998V34.6946V34.6893V34.684V34.6787V34.6735V34.6682V34.6629V34.6576V34.6524V34.6471V34.6418V34.6365V34.6313V34.626V34.6207V34.6154V34.6102V34.6049V34.5996V34.5943V34.5891V34.5838V34.5785V34.5732V34.568V34.5627V34.5574V34.5521V34.5469V34.5416V34.5363V34.531V34.5258V34.5205V34.5152V34.5099V34.5047V34.4994V34.4941V34.4888V34.4836V34.4783V34.473V34.4677V34.4625V34.4572V34.4519V34.4466V34.4414V34.4361V34.4308V34.4255V34.4203V34.415V34.4097V34.4044V34.3992V34.3939V34.3886V34.3833V34.3781V34.3728V34.3675V34.3622V34.357V34.3517V34.3464V34.3411V32.9971L52.9216 33.3833C51.7074 33.7476 50.3907 33.9842 49.0932 33.9842C44.9884 33.9842 41.2548 32.4197 38.3534 29.5183L37.0026 28.1675L37.389 27.7811L38.7398 29.1318L39.4469 28.4247L38.7398 29.1318C41.5018 31.8938 45.2297 33.4119 49.0932 33.4119C55.4333 33.4119 60.6398 28.2053 60.6398 21.8652C60.6398 18.7661 59.3738 15.8121 57.2601 13.6983L55.7167 12.1549C54.2007 10.6389 53.2099 8.59218 52.9761 6.40222H53.5502C53.7629 8.31581 54.5784 10.0059 55.7604 11.5425L57.1616 13.364L57.5394 11.0972L59.1783 1.26379L59.7758 1.35342L57.8812 12.9581L57.8015 13.4463L58.1411 13.8059C60.1379 15.9201 61.2122 18.7548 61.2122 21.8652C61.2122 26.2515 58.842 30.0581 55.3826 32.2053Z" fill="#31AAFE" stroke="#31AAFE" stroke-width="2"/>
<path d="M3.20189 8.49219C4.02095 8.59457 5.16762 9.90506 3.20189 14.328C0.744722 19.8566 -0.176716 26.6138 3.20189 30.2996C5.90477 33.2482 8.42339 34.3948 9.34483 34.5996" stroke="#31AAFE" stroke-width="2" stroke-dasharray="2 2"/>
<path d="M64.9382 5.72852C64.1192 6.13804 62.5425 7.75568 62.7882 10.95C63.0953 14.9429 71.3884 24.1573 59.1025 34.6002" stroke="#31AAFE" stroke-width="2" stroke-dasharray="2 2"/>
</svg>
